<svg width="80" height="72" viewBox="0 0 80 72" fill="none" xmlns="http://www.w3.org/2000/svg">
<path d="M72.1116 41.294C70.9582 24.6454 59.5067 12.803 40 12.803C20.4934 12.803 9.04186 24.6454 7.88838 41.294C7.21552 50.996 11.1245 59.2434 18.84 64.4982C18.84 64.4982 26.6645 70.8295 40 70.9961C53.3355 70.8295 61.16 64.4982 61.16 64.4982C68.8691 59.2434 72.7845 50.996 72.1116 41.294Z" fill="#FFC022"/>
<path d="M69.779 33.7707C75.8732 17.8591 72.118 5.68345 69.9649 2.19097C69.1126 0.806793 67.4721 0.4223 65.9597 0.896508C61.9738 2.15252 51.2144 10.9446 46.4595 23.2484" fill="#FFC022"/>
<path d="M58.0457 19.1664C57.0588 18.3397 57.0845 17.0068 57.6612 15.8597C59.0454 13.0978 62.3584 10.2333 63.5311 9.3041C65.4536 7.77894 66.9403 7.26629 67.5106 9.72064C68.568 14.2577 68.4847 20.416 67.3504 23.8123C66.9531 25.0107 65.7227 25.6451 64.7743 24.8184L58.0457 19.1664Z" fill="#FFD1D1"/>
<path d="M10.2209 33.7707C4.12667 17.8591 7.88189 5.68345 10.0351 2.19097C10.8873 0.806793 12.5279 0.4223 14.0402 0.896508C18.0261 2.15252 28.7855 10.9446 33.5404 23.2484" fill="#FFC022"/>
<path d="M21.9544 19.1664C22.9412 18.3397 22.9156 17.0068 22.3388 15.8597C20.9547 13.0978 17.6416 10.2333 16.4689 9.3041C14.5464 7.77894 13.0597 7.26629 12.4894 9.72064C11.432 14.2577 11.5154 20.416 12.6496 23.8123C13.0469 25.0107 14.2773 25.6451 15.2257 24.8184L21.9544 19.1664Z" fill="#FFD1D1"/>
<path opacity="0.47" d="M33.6688 24.7992C34.3929 25.4144 35.8604 25.3247 36.7127 24.3378C37.7444 23.1395 38.821 19.1023 38.1481 12.8607C35.1555 12.9696 32.3231 13.399 29.6829 14.1231C31.8168 17.622 32.3295 23.6586 33.6688 24.7992ZM46.3314 24.7992C45.6073 25.4144 44.1398 25.3247 43.2875 24.3378C42.2558 23.1395 41.1792 19.1023 41.8521 12.8607C44.8447 12.9696 47.6772 13.399 50.3174 14.1231C48.1834 17.622 47.6708 23.6586 46.3314 24.7992Z" fill="#FF7043"/>
<path d="M2.88992 38.9486L13.7326 44.293M1.54419 46.7666L13.1751 48.7916M2.88992 57.1095L13.7326 53.4119M77.11 38.9486L66.2673 44.293M78.4557 46.7666L66.8248 48.7916M77.11 57.1095L66.2673 53.4119" stroke="#9E9E9E" stroke-width="3" stroke-miterlimit="10" stroke-linecap="round"/>
<path d="M34.8477 45.4145C34.8157 43.5817 37.4494 42.6974 39.9422 42.659C42.435 42.6141 45.1137 43.4279 45.1457 45.2607C45.1778 47.0934 42.0313 49.5158 40.0512 49.5158C38.071 49.5158 34.8797 47.2472 34.8477 45.4145Z" fill="black"/>
<path d="M45.056 52.5661C45.1201 52.5789 45.1842 52.5917 45.2547 52.6045C46.0877 52.7583 46.8567 52.8865 47.6257 53.3094C47.7282 53.3671 47.8436 53.4376 47.882 53.5593C47.9269 53.6811 47.882 53.8221 47.8372 53.9438C47.5616 54.6039 47.049 55.0973 46.5363 55.5459C44.5113 57.2889 42.0505 58.609 39.5001 58.4552C37.2956 58.3271 35.1681 57.039 33.8608 55.0525C33.7967 54.9563 33.7391 54.8538 33.7327 54.7384C33.7263 54.6167 33.7839 54.5013 33.848 54.4052C34.2261 53.8349 34.8605 53.5786 35.4308 53.2774C36.4241 52.7647 37.3341 52.0534 38.1095 51.1883C38.4683 50.791 38.808 50.3552 39.2758 50.1373C40.1024 49.7528 40.4357 50.4385 41.006 50.8871C41.6468 51.3869 42.4607 51.7971 43.2168 52.015C43.832 52.188 44.4472 52.4315 45.056 52.5661Z" fill="#EF7F9D"/>
<path d="M48.4397 52.8929C48.4397 52.8929 45.6073 58.9358 40.1731 58.9358C34.9632 58.9358 31.9065 52.8929 31.9065 52.8929" stroke="black" stroke-width="3.775" stroke-miterlimit="10"/>
<path d="M25.1138 50.336C25.1138 50.336 27.7027 53.4888 32.7588 53.4888C38.8466 53.4888 40.4038 46.773 40.4038 46.773" stroke="black" stroke-width="4" stroke-miterlimit="10" stroke-linecap="round"/>
<path d="M54.8865 50.336C54.8865 50.336 52.2975 53.4888 47.2415 53.4888C41.1536 53.4888 39.5964 46.773 39.5964 46.773" stroke="black" stroke-width="4" stroke-miterlimit="10" stroke-linecap="round"/>
<path d="M65.6072 23.5176C60.8779 22.191 57.3982 26.0616 57.3982 26.0616C57.3982 26.0616 56.9945 21.672 52.9509 20.2814C48.0935 18.6153 42.9669 21.2683 42.6657 28.1379C42.3197 35.9944 52.6818 46.2732 52.6818 46.2732C52.6818 46.2732 65.5495 42.8191 69.7661 35.4817C73.2009 29.5157 69.1894 24.5236 65.6072 23.5176Z" fill="#D93D8E"/>
<path d="M65.6072 23.5176C65.6072 23.5176 64.4409 23.2035 63.8257 23.274C63.8257 23.274 66.4595 24.9017 67.6963 27.8559C68.5166 29.804 68.728 32.3353 67.1836 35.36C63.8321 41.9156 53.5149 45.972 52.7459 46.2539C53.6879 45.9912 65.7162 42.5308 69.7662 35.4753C73.201 29.5157 69.1894 24.5236 65.6072 23.5176ZM57.3919 26.7793C57.3598 26.0873 57.2317 25.3952 57.1291 24.9914C56.6293 22.9664 55.7578 21.8706 54.2647 20.9286C52.7715 19.9802 50.9324 19.8008 50.9324 19.8008C50.9324 19.8008 52.6754 20.3263 53.893 22.7229C54.5338 23.9789 54.867 25.3823 54.9631 26.7922C54.9952 27.2984 55.008 27.8303 55.2387 28.2853C55.4694 28.7403 55.9821 29.1055 56.4755 28.9645C57.2637 28.7403 57.4367 27.7534 57.3919 26.7793Z" fill="#AD236B"/>
<path d="M46.1904 24.0174C47.267 22.6781 49.0357 21.4028 50.7274 22.582C51.631 23.21 51.6374 24.9915 50.5416 25.7925C48.6832 27.151 48.5999 28.0482 48.3884 28.7915C48.1385 29.6887 47.9719 30.7525 47.1581 31.2074C46.3442 31.6624 45.6329 31.1818 45.2035 29.9194C45.1138 29.6566 43.9988 26.7473 46.1904 24.0174Z" fill="#F48FB1"/>
<path d="M27.0553 20.1789C22.3837 21.6976 21.634 26.8434 21.634 26.8434C21.634 26.8434 18.8656 23.4086 14.7323 24.498C9.76594 25.8053 6.97196 30.855 10.5285 36.7442C14.5977 43.4792 28.9201 46.286 28.9201 46.286C28.9201 46.286 37.7122 36.2764 37.1547 27.8303C36.6997 20.9607 30.5927 19.0318 27.0553 20.1789Z" fill="#D93D8E"/>
<path d="M27.0553 20.1789C27.0553 20.1789 25.9082 20.5634 25.4404 20.9671C25.4404 20.9671 28.5292 20.8582 31.2014 22.6332C32.9637 23.7995 34.5401 25.7861 34.931 29.1632C35.7769 36.475 29.4392 45.5747 28.9521 46.2347C29.5866 45.4978 37.6801 35.9495 37.1483 27.8303C36.6997 20.9607 30.5926 19.0318 27.0553 20.1789ZM22.0313 27.4458C21.6708 26.9601 21.2653 26.5096 20.8201 26.1001C19.2821 24.6903 17.9492 24.2673 16.1869 24.3058C14.4183 24.3442 12.7842 25.2158 12.7842 25.2158C12.7842 25.2158 14.5272 24.6903 16.8662 26.004C18.0966 26.6961 19.1476 27.6765 20.0127 28.798C20.3267 29.2017 20.6278 29.6374 21.07 29.8874C21.5122 30.1437 22.1402 30.1565 22.4734 29.772C23.0053 29.1504 22.6016 28.234 22.0313 27.4458Z" fill="#AD236B"/>
<path d="M11.1949 31.3612C11.2141 30.8934 11.2974 30.4192 11.4512 29.9386C11.7396 29.0415 12.342 28.0802 13.2904 27.7855C14.1747 27.5099 15.3987 27.7021 15.8665 28.5865C16.2895 29.3683 15.9819 30.3231 15.7512 31.1818C15.4756 32.2199 15.4884 33.1748 15.4051 34.2001C15.341 35.0139 14.7771 35.7445 13.9184 35.7188C13.1302 35.6932 12.5214 35.0396 12.0857 34.3795C11.4577 33.4247 11.1565 32.4122 11.1949 31.3612Z" fill="#F48FB1"/>
</svg>
